<svg xmlns="http://www.w3.org/2000/svg" width="120.672" height="28" viewBox="0 0 120.672 28">
  <g id="logo" transform="translate(-510.328 -312)">
    <path id="Path_1" data-name="Path 1" d="M19.054-8.863a6,6,0,0,1-.284,1.739,5.2,5.2,0,0,1-.918,1.731A5.118,5.118,0,0,1,16.2-4.057a5.286,5.286,0,0,1-2.485.537h-7V-7.206h7a1.555,1.555,0,0,0,1.224-.485,1.739,1.739,0,0,0,.433-1.2,1.518,1.518,0,0,0-.485-1.194,1.7,1.7,0,0,0-1.172-.433h-7a1.555,1.555,0,0,0-1.224.485,1.739,1.739,0,0,0-.433,1.2v5.418a1.536,1.536,0,0,0,.485,1.209,1.739,1.739,0,0,0,1.2.433h6.97v3.7h-7a6,6,0,0,1-1.739-.284A5.2,5.2,0,0,1,3.24.726,5.118,5.118,0,0,1,1.9-.93a5.286,5.286,0,0,1-.537-2.485V-8.863A6,6,0,0,1,1.651-10.6a5.2,5.2,0,0,1,.918-1.731,5.118,5.118,0,0,1,1.657-1.336,5.286,5.286,0,0,1,2.485-.537h7a6,6,0,0,1,1.739.284A5.2,5.2,0,0,1,17.181-13a5.118,5.118,0,0,1,1.336,1.657A5.286,5.286,0,0,1,19.054-8.863ZM37.263-3.52a5.927,5.927,0,0,1-.254,1.8,5.241,5.241,0,0,1-.672,1.4,4.564,4.564,0,0,1-.97,1.03,5.661,5.661,0,0,1-1.157.694,5.946,5.946,0,0,1-1.224.4,5.849,5.849,0,0,1-1.172.127H21.307V-1.953H31.785a1.62,1.62,0,0,0,1.194-.4,1.576,1.576,0,0,0,.4-1.164,1.42,1.42,0,0,0-1.567-1.552H25.8a4.834,4.834,0,0,1-2.179-.448,4.452,4.452,0,0,1-1.455-1.119,4.267,4.267,0,0,1-.806-1.448,4.8,4.8,0,0,1-.246-1.448,4.692,4.692,0,0,1,.463-2.187,4.367,4.367,0,0,1,1.164-1.44,4.567,4.567,0,0,1,1.522-.8,5.365,5.365,0,0,1,1.537-.246h9.537v3.881H25.83a1.327,1.327,0,0,0-.47.067.555.555,0,0,0-.254.179.5.5,0,0,0-.1.239,2.108,2.108,0,0,0-.015.246.892.892,0,0,0,.09.373.469.469,0,0,0,.187.194.6.6,0,0,0,.254.067q.142.007.276.007h6.015a5.5,5.5,0,0,1,2.537.537,5.047,5.047,0,0,1,1.687,1.351A5.358,5.358,0,0,1,36.972-5.3,6.119,6.119,0,0,1,37.263-3.52Zm20.507,0a5.927,5.927,0,0,1-.254,1.8,5.241,5.241,0,0,1-.672,1.4,4.564,4.564,0,0,1-.97,1.03,5.661,5.661,0,0,1-1.157.694,5.981,5.981,0,0,1-1.216.4,5.74,5.74,0,0,1-1.164.127h-7V-1.953h7a1.546,1.546,0,0,0,1.164-.4A1.613,1.613,0,0,0,53.89-3.52V-8.744a1.607,1.607,0,0,0-.4-1.194,1.586,1.586,0,0,0-1.157-.388h-6.97a1.639,1.639,0,0,0-1.194.4,1.55,1.55,0,0,0-.4,1.157V6.973H39.89V-8.774a5.854,5.854,0,0,1,.254-1.791,5.129,5.129,0,0,1,.679-1.4,4.708,4.708,0,0,1,.978-1.03,5.661,5.661,0,0,1,1.157-.694,5.946,5.946,0,0,1,1.224-.4,5.784,5.784,0,0,1,1.157-.127h7a5.854,5.854,0,0,1,1.791.254,5.264,5.264,0,0,1,1.4.672,4.564,4.564,0,0,1,1.03.97,5.661,5.661,0,0,1,.694,1.157,5.981,5.981,0,0,1,.4,1.216,5.74,5.74,0,0,1,.127,1.164ZM78.442-8.863a6,6,0,0,1-.284,1.739,5.2,5.2,0,0,1-.918,1.731,5.118,5.118,0,0,1-1.657,1.336A5.286,5.286,0,0,1,73.1-3.52h-7V-7.206h7a1.555,1.555,0,0,0,1.224-.485,1.739,1.739,0,0,0,.433-1.2,1.518,1.518,0,0,0-.485-1.194A1.7,1.7,0,0,0,73.1-10.52h-7a1.555,1.555,0,0,0-1.224.485,1.739,1.739,0,0,0-.433,1.2v5.418a1.536,1.536,0,0,0,.485,1.209,1.739,1.739,0,0,0,1.2.433H73.1v3.7h-7a6,6,0,0,1-1.739-.284A5.2,5.2,0,0,1,62.628.726,5.118,5.118,0,0,1,61.293-.93a5.286,5.286,0,0,1-.537-2.485V-8.863a6,6,0,0,1,.284-1.739,5.2,5.2,0,0,1,.918-1.731,5.118,5.118,0,0,1,1.657-1.336,5.286,5.286,0,0,1,2.485-.537h7a6,6,0,0,1,1.739.284A5.2,5.2,0,0,1,76.569-13,5.118,5.118,0,0,1,77.9-11.348,5.286,5.286,0,0,1,78.442-8.863Zm16.731-1.463H86.442a1.639,1.639,0,0,0-1.194.4,1.55,1.55,0,0,0-.4,1.157v10.7H80.964v-10.7a5.854,5.854,0,0,1,.254-1.791,5.129,5.129,0,0,1,.679-1.4,4.708,4.708,0,0,1,.978-1.03,5.661,5.661,0,0,1,1.157-.694,5.946,5.946,0,0,1,1.224-.4,5.784,5.784,0,0,1,1.157-.127h8.761Zm6.493-7.194H97.785v-3.507h3.881Zm0,19.448H97.785V-14.206h3.881Zm20.373-5.343a6,6,0,0,1-.284,1.739,5.2,5.2,0,0,1-.918,1.731,5.118,5.118,0,0,1-1.657,1.336,5.286,5.286,0,0,1-2.485.537h-7a6,6,0,0,1-1.739-.284,5.2,5.2,0,0,1-1.731-.918A5.118,5.118,0,0,1,104.89-.93a5.286,5.286,0,0,1-.537-2.485,6.073,6.073,0,0,1,.284-1.746,5.183,5.183,0,0,1,.918-1.739,5.118,5.118,0,0,1,1.657-1.336,5.286,5.286,0,0,1,2.485-.537h7v3.7h-7a1.555,1.555,0,0,0-1.224.485,1.739,1.739,0,0,0-.433,1.2,1.474,1.474,0,0,0,.5,1.187,1.772,1.772,0,0,0,1.187.425h6.97a1.567,1.567,0,0,0,1.224-.478,1.711,1.711,0,0,0,.433-1.194V-8.863a1.591,1.591,0,0,0-.47-1.209,1.652,1.652,0,0,0-1.187-.448h-8.522v-3.687H116.7a6,6,0,0,1,1.739.284,5.2,5.2,0,0,1,1.731.918,5.118,5.118,0,0,1,1.336,1.657,5.286,5.286,0,0,1,.537,2.485Z" transform="translate(508.961 333.027)" fill="#c83348"/>
  </g>
</svg>
